<?xml version="1.0" encoding="UTF-8"?><svg id="Layer_2" xmlns="http://www.w3.org/2000/svg" xmlns:xlink="http://www.w3.org/1999/xlink" viewBox="0 0 78.57 71.67"><defs><style>.cls-1{fill:url(#linear-gradient);}</style><linearGradient id="linear-gradient" x1="-30.4" y1="35.84" x2="99.3" y2="35.84" gradientUnits="userSpaceOnUse"><stop offset="0" stop-color="#e7b159"/><stop offset=".5" stop-color="#f75551"/><stop offset="1" stop-color="#d85887"/></linearGradient></defs><g id="Layer_1-2"><path class="cls-1" d="M27.64,49.35h0c0,2.94-2.38,5.32-5.32,5.32s-5.32-2.38-5.32-5.32h0c0-2.94,2.38-5.32,5.32-5.32s5.32,2.38,5.32,5.32ZM22.32,27.64c2.94,0,5.32-2.38,5.32-5.32h0c0-2.94-2.38-5.32-5.32-5.32s-5.32,2.38-5.32,5.32h0c0,2.94,2.38,5.32,5.32,5.32ZM72.07,17.01c-.09,0-.18-.01-.28-.01h-16.76c-.92,0-1.78.42-2.36,1.14-3.42,4.2-.5,8.92,3.52,8.92h12.96s0,0,0,0v13.06c0,2.5-2.02,4.52-4.52,4.52h-18.71l-8.79-8.79,10.57-10.57c.72-.72,1.07-1.72.96-2.73-.62-5.65-6.31-6.98-9.3-3.98l-10.35,10.35-3.73,3.73c-1.76,1.76-1.76,4.63,0,6.39l11.87,11.87,1.78,1.78c.18.18.37.35.57.5.05.04.11.08.16.12.05.03.09.07.14.1.03.02.06.05.1.07.08.05.16.1.23.15.03.02.05.04.08.06.05.03.11.06.16.09.08.05.17.1.25.14.02,0,.04.02.06.03.07.03.13.06.2.09.02,0,.03.01.05.02.01,0,.03.01.04.02.03.01.06.02.08.03.06.03.12.05.18.07.03.01.06.03.1.04.05.02.1.03.14.05.15.05.3.1.45.14.04.01.08.03.12.04,0,0,.01,0,.02,0,.04.01.08.02.12.02.14.03.27.06.41.08.05,0,.1.02.15.03.04,0,.07,0,.11,0,.12.02.23.03.35.04.01,0,.02,0,.04,0,0,0,0,0,.01,0,.16.01.33.02.49.02h23.56c6.24,0,11.3-5.06,11.3-11.3v-19.58c0-3.65-2.89-6.63-6.5-6.77ZM69.27,67.67H10c-3.31,0-6-2.69-6-6V10c0-3.31,2.69-6,6-6h59.27c0-2.21-1.79-4-4-4H10C4.48,0,0,4.48,0,10v51.67c0,5.52,4.48,10,10,10h55.27c2.21,0,4-1.79,4-4h0Z"/></g></svg>